# xmcd CD database file
#
# Track frame offsets:
#	183
#	22528
#	44223
#	63713
#	89478
#	116278
#	145705
#	171295
#	195585
#	212160
#	232683
#	251825
#	269543
#
# Disc length: 3871 seconds
#
# Revision: 0
# Processed by: cddbd v1.5.2PL0 Copyright (c) Steve Scherf et al.
# Submitted via: CDex 1.70beta2
#
DISCID=b70f1d0d
DTITLE=Mandy Fox and Hara - First Time Ever
DYEAR=1996
DGENRE=New Age
TTITLE0=Invocation
TTITLE1=Missing
TTITLE2=Here it Comes
TTITLE3=You
TTITLE4=Flight of the Eagle
TTITLE5=First Time Ever
TTITLE6=Zoodat
TTITLE7=She Moved Through The Fair
TTITLE8=Let Me Go Soldier
TTITLE9=Bliss
TTITLE10=The Prayer
TTITLE11=Soukhous By Night
TTITLE12=The Call
EXTD=YEAR: 1996
EXTT0=
EXTT1=
EXTT2=
EXTT3=
EXTT4=
EXTT5=
EXTT6=
EXTT7=
EXTT8=
EXTT9=
EXTT10=
EXTT11=
EXTT12=
PLAYORDER=
